<svg width="89" height="90" viewBox="0 0 89 90" fill="none" xmlns="http://www.w3.org/2000/svg">
<path d="M82.2146 47.1795C81.9435 45.7671 80.7082 44.7458 79.2701 44.745H76.3736L76.1606 43.4685C75.9481 42.1864 74.938 41.1847 73.6541 40.983C73.3691 40.938 73.0811 40.908 72.7976 40.869C73.2888 38.5758 72.8807 36.1815 71.6576 34.1805C72.3038 32.5042 72.1832 30.6289 71.3276 29.0493C70.4719 27.4696 68.9671 26.344 67.2101 25.9695C66.0868 19.9575 60.8565 15.5873 54.7406 15.5505C54.5906 15.5505 54.4571 15.57 54.3146 15.5745C53.3373 14.0398 51.7262 13.0212 49.9206 12.7966C48.1151 12.5721 46.3035 13.1649 44.9801 14.4135C43.3129 13.3298 41.3676 12.752 39.3791 12.75C36.1752 12.7631 33.1556 14.2502 31.1921 16.782C29.0119 16.1462 26.6609 16.5366 24.8031 17.8428C22.9454 19.149 21.7825 21.2293 21.6431 23.496C19.3531 24.4586 17.863 26.6999 17.8616 29.184C17.8663 29.6146 17.9166 30.0435 18.0116 30.4635C15.9864 33.5165 15.4572 37.3239 16.5731 40.8135C16.1711 40.869 15.7601 40.9185 15.3731 40.9755C14.0826 41.1702 13.0634 42.1724 12.8471 43.4595L12.6341 44.7405H9.73008C8.29436 44.7415 7.06059 45.7596 6.78708 47.169L0.21858 80.892C-0.0379422 82.2127 0.309915 83.5789 1.1668 84.6161C2.02369 85.6533 3.2997 86.2527 4.64508 86.25H35.9261C37.1681 88.299 40.9421 89.25 44.5001 89.25C48.0206 89.25 51.7586 88.3215 53.0366 86.25H84.3551C85.7001 86.2526 86.9759 85.6534 87.8327 84.6166C88.6895 83.5797 89.0376 82.214 88.7816 80.8935L82.2146 47.1795ZM22.3976 31.899C21.1797 31.1667 20.5984 29.713 20.9757 28.3429C21.353 26.9728 22.5965 26.0216 24.0176 26.016C25.0121 26.013 25.9482 26.4858 26.5361 27.288C26.8555 27.7183 27.3802 27.9456 27.9126 27.8841C28.4449 27.8227 28.9041 27.4819 29.1171 26.9901C29.33 26.4984 29.2645 25.9303 28.9451 25.5C27.9265 24.1387 26.383 23.2678 24.6911 23.1C25.1383 20.9993 26.9908 19.4954 29.1386 19.4895C29.3216 19.4988 29.5039 19.5188 29.6846 19.5495C29.5639 19.857 29.4588 20.1704 29.3696 20.4885C29.1829 21.2825 29.6649 22.0802 30.4547 22.2842C31.2444 22.4881 32.0524 22.0236 32.2736 21.2385C32.4442 20.5792 32.7062 19.9471 33.0521 19.3605C34.3827 17.1314 36.7831 15.7616 39.3791 15.75C40.7919 15.7562 42.1725 16.1732 43.3526 16.95C43.1278 17.5817 43.0087 18.2461 43.0001 18.9165C43.0001 19.7449 43.6717 20.4165 44.5001 20.4165C45.3285 20.4165 46.0001 19.7449 46.0001 18.9165C46.0001 17.1739 47.4127 15.7612 49.1553 15.7612C50.8979 15.7612 52.3106 17.1739 52.3106 18.9165C52.3106 19.7449 52.9822 20.4165 53.8106 20.4165C54.639 20.4165 55.3106 19.7449 55.3106 18.9165C55.3106 18.801 55.2821 18.6915 55.2761 18.576C59.5711 18.841 63.1828 21.894 64.1591 26.085C63.4594 26.2887 62.802 26.6164 62.2181 27.0525C61.7894 27.374 61.5648 27.8999 61.6289 28.4319C61.693 28.964 62.036 29.4214 62.5289 29.6319C63.0217 29.8424 63.5894 29.774 64.0181 29.4525C65.2168 28.565 66.8726 28.6358 67.9911 29.6223C69.1097 30.6088 69.3868 32.2428 68.6561 33.543C68.3296 34.1171 67.8334 34.5761 67.2356 34.857C66.6087 35.1605 66.2732 35.8556 66.4256 36.5352C66.578 37.2149 67.1781 37.7002 67.8746 37.707C68.0945 37.7073 68.3118 37.6586 68.5106 37.5645C68.9081 37.3718 69.2838 37.137 69.6311 36.864C70.4065 39.0683 69.9202 41.52 68.3621 43.2615L68.3261 43.299C66.3719 45.4159 63.2546 45.988 60.6761 44.703C60.4235 44.5696 60.1809 44.4182 59.9501 44.25C61.0549 42.701 61.2075 40.6664 60.3461 38.97C60.1049 38.4912 59.6266 38.1774 59.0914 38.1468C58.5561 38.1162 58.0452 38.3735 57.7511 38.8218C57.457 39.2701 57.4244 39.8412 57.6656 40.32C58.1588 41.3114 57.8512 42.5145 56.9426 43.1475C56.409 43.5027 55.7499 43.6151 55.1288 43.4567C54.5076 43.2982 53.9828 42.8839 53.6846 42.3165C53.4448 41.8371 52.9674 41.5221 52.4324 41.4901C51.8973 41.4581 51.3859 41.714 51.0906 42.1614C50.7954 42.6087 50.7613 43.1796 51.0011 43.659C51.8808 45.4348 53.6933 46.5563 55.6751 46.551C56.3203 46.5466 56.9589 46.4209 57.5576 46.1805C58.0933 46.6495 58.6836 47.0524 59.3156 47.3805C61.4534 48.4886 63.9394 48.7184 66.2441 48.021C64.7617 50.045 62.5433 51.4053 60.0671 51.8085C59.2967 51.9339 58.7513 52.6291 58.8128 53.4072C58.8742 54.1852 59.5221 54.7861 60.3026 54.789C60.3824 54.789 60.4622 54.783 60.5411 54.771C61.4545 54.6129 62.3471 54.3522 63.2021 53.994C63.6642 54.811 64.0392 55.6742 64.3211 56.5695C64.3727 56.7258 64.399 56.8894 64.3991 57.054C64.3987 57.7023 64.0115 58.2878 63.4151 58.542C62.7251 58.8089 61.9418 58.5983 61.4786 58.0215C60.3169 56.6573 58.7957 55.6465 57.0881 55.104C53.8466 54.018 52.5956 53.0475 52.0646 51.9915C52.8429 51.8944 53.6119 51.7339 54.3641 51.5115C54.8764 51.3539 55.2658 50.935 55.3855 50.4126C55.5052 49.8901 55.3371 49.3435 54.9445 48.9786C54.5519 48.6137 53.9944 48.4859 53.4821 48.6435C52.6404 48.9017 51.7716 49.0613 50.8931 49.119C49.2006 49.2513 47.5002 48.9947 45.9221 48.369C45.3295 48.1379 44.6557 48.3056 44.2406 48.7875C42.0566 51.2962 38.3188 51.7226 35.626 49.7702C32.9331 47.8178 32.1763 44.1327 33.8816 41.277C34.1578 40.8159 34.1671 40.2424 33.9059 39.7726C33.6446 39.3027 33.1526 39.008 32.6151 38.9993C32.0776 38.9906 31.5763 39.2694 31.3001 39.7305C30.9422 40.3396 30.6544 40.9872 30.4421 41.661C29.2609 41.5989 28.3295 40.6327 28.3106 39.45V39.4125C28.3098 39.0167 28.1509 38.6376 27.8692 38.3596C27.5875 38.0815 27.2064 37.9276 26.8106 37.932C25.9786 37.9402 25.3089 38.6179 25.3106 39.45C25.3173 42.1102 27.3234 44.3398 29.9681 44.6265C29.9735 45.1293 30.0191 45.6309 30.1046 46.1265C26.7554 46.8512 23.2817 45.6473 21.0992 43.0056C18.9167 40.3638 18.3899 36.7253 19.7336 33.573C20.0692 33.9125 20.4438 34.2111 20.8496 34.4625C21.5582 34.8776 22.4688 34.6457 22.8926 33.9423C23.3164 33.2388 23.0957 32.3254 22.3976 31.893V31.899ZM15.7976 43.9485C16.4891 43.8465 17.2031 43.7565 17.9126 43.6635C20.686 48.0954 25.9903 50.2474 31.0676 49.0005C32.4318 51.5898 34.9247 53.3954 37.8102 53.8845C40.6957 54.3736 43.6444 53.4901 45.7856 51.495C46.8049 51.799 47.8548 51.9892 48.9161 52.062C49.6406 54.81 51.7346 56.475 56.1341 57.9495C57.3201 58.3213 58.3781 59.0182 59.1881 59.961C60.0885 61.0318 61.4131 61.654 62.8121 61.6635C63.4239 61.6633 64.0295 61.5398 64.5926 61.3005C66.2929 60.5738 67.3959 58.9031 67.3961 57.054C67.3975 56.5718 67.3205 56.0925 67.1681 55.635C66.8308 54.5752 66.3865 53.5524 65.8421 52.5825C68.3928 50.7489 70.1697 48.0314 70.8266 44.9595C71.1461 44.5799 71.435 44.1757 71.6906 43.7505C72.1931 43.815 72.6956 43.872 73.2011 43.956L78.6161 76.527C68.0313 72.9926 56.5848 72.9926 46.0001 76.527V57.75C46.0001 56.9216 45.3285 56.25 44.5001 56.25C43.6717 56.25 43.0001 56.9216 43.0001 57.75V76.533C32.4165 72.9953 20.9702 72.9911 10.3841 76.521L15.7976 43.9485ZM3.47658 82.698C3.19315 82.3556 3.07761 81.9045 3.16158 81.468L9.73008 47.745H12.1301L7.42308 76.0335C7.25752 77.0632 7.63665 78.1052 8.42518 78.7877C9.21371 79.4702 10.2993 79.696 11.2946 79.3845C19.2911 76.7938 27.8103 76.2533 36.0701 77.8125L35.6231 83.25H4.64508C4.19256 83.2503 3.76373 83.0478 3.47658 82.698ZM44.5001 86.25C40.8866 86.25 38.8136 85.182 38.5091 84.7065L39.0251 78.4815C40.6745 78.8922 42.2885 79.4334 43.8521 80.1C44.0543 80.1974 44.2756 80.2487 44.5001 80.25C44.7251 80.2497 44.9472 80.1984 45.1496 80.1C46.7122 79.4295 48.3258 78.8847 49.9751 78.471L50.4911 84.705C50.1866 85.182 48.1136 86.25 44.5001 86.25ZM85.5236 82.698C85.2364 83.0478 84.8076 83.2503 84.3551 83.25H53.3816L52.9316 77.802C61.196 76.246 69.7188 76.7912 77.7176 79.3875C78.7126 79.6949 79.7959 79.4659 80.5814 78.7821C81.3669 78.0983 81.743 77.0569 81.5756 76.029L76.8731 47.7465H79.2731L85.8431 81.4665C85.9263 81.9041 85.8091 82.356 85.5236 82.698Z" fill="white"/>
<path d="M39.529 34.7775C38.915 35.3331 38.8673 36.2811 39.4225 36.8955C40.695 38.3004 42.3767 39.2701 44.23 39.6675C43.3907 40.8503 42.0294 41.5522 40.579 41.55C39.7506 41.55 39.079 42.2216 39.079 43.05C39.079 43.8784 39.7506 44.55 40.579 44.55C43.6843 44.5624 46.4705 42.6445 47.5675 39.7395C51.2973 39.1214 54.2502 36.2504 54.973 32.5395C55.0847 32.0087 54.9011 31.459 54.4929 31.1018C54.0847 30.7446 53.5155 30.6356 53.0042 30.8168C52.4929 30.9979 52.1193 31.441 52.027 31.9755C51.7329 33.5226 50.8403 34.8912 49.543 35.784C47.0474 37.4648 43.7004 37.0833 41.647 34.884C41.0914 34.27 40.1434 34.2223 39.529 34.7775Z" fill="white"/>
<path d="M34.3 33.15C35.1285 33.15 35.8001 32.4784 35.8001 31.65C35.8001 30.6157 36.2109 29.6237 36.9423 28.8923C37.6737 28.1609 38.6657 27.75 39.7 27.75C40.5285 27.75 41.2001 27.0784 41.2001 26.25C41.2001 25.4216 40.5285 24.75 39.7 24.75C35.891 24.7541 32.8042 27.8409 32.8 31.65C32.8 32.0478 32.9581 32.4294 33.2394 32.7107C33.5207 32.992 33.9022 33.15 34.3 33.15Z" fill="white"/>
<path d="M46 3.74999V2.24999C46 1.42156 45.3284 0.74999 44.5 0.74999C43.6716 0.74999 43 1.42156 43 2.24999V3.74999C43 4.57842 43.6716 5.24999 44.5 5.24999C45.3284 5.24999 46 4.57842 46 3.74999Z" fill="white"/>
<path d="M69.1152 11.514L67.6152 13.014C67.2253 13.3906 67.0689 13.9483 67.2062 14.4727C67.3434 14.9972 67.753 15.4068 68.2774 15.544C68.8019 15.6813 69.3596 15.5249 69.7362 15.135L71.2362 13.635C71.6261 13.2584 71.7825 12.7007 71.6453 12.1762C71.508 11.6518 71.0984 11.2422 70.574 11.1049C70.0495 10.9677 69.4918 11.1241 69.1152 11.514Z" fill="white"/>
<path d="M20.3246 15.5745C20.9312 15.5744 21.478 15.2089 21.7101 14.6485C21.9423 14.088 21.814 13.443 21.3851 13.014L19.8851 11.514C19.5085 11.1241 18.9508 10.9677 18.4264 11.1049C17.9019 11.2422 17.4923 11.6518 17.3551 12.1762C17.2178 12.7007 17.3742 13.2584 17.7641 13.635L19.2641 15.135C19.5454 15.4163 19.9268 15.5744 20.3246 15.5745Z" fill="white"/>
<path d="M31.8715 9.26248C32.0686 9.26206 32.2637 9.22334 32.4461 9.14848C32.8137 8.99619 33.1058 8.70404 33.258 8.33635C33.4102 7.96866 33.41 7.55556 33.2575 7.18798L31.534 3.02998C31.3366 2.52354 30.8807 2.16354 30.3422 2.08898C29.8038 2.01442 29.2672 2.23698 28.9396 2.6707C28.6119 3.10443 28.5446 3.68146 28.7635 4.17898L30.4855 8.33698C30.7179 8.89737 31.2649 9.26263 31.8715 9.26248Z" fill="white"/>
<path d="M59.4249 2.21849C58.6599 1.902 57.7831 2.26521 57.4659 3.02999L55.7424 7.18799C55.5895 7.55575 55.5891 7.96922 55.7413 8.33727C55.8936 8.70532 56.1859 8.99771 56.5539 9.14999C56.7362 9.22485 56.9314 9.26357 57.1284 9.26399C57.7351 9.26415 58.2821 8.89888 58.5144 8.33849L60.2364 4.18049C60.3894 3.81274 60.3898 3.39926 60.2375 3.03121C60.0853 2.66317 59.793 2.37077 59.4249 2.21849Z" fill="white"/>
<path d="M74.9876 27.123C75.1849 27.1226 75.3801 27.0834 75.5621 27.0075L79.7186 25.2855C80.2138 25.0805 80.562 24.6269 80.6321 24.0956C80.7021 23.5643 80.4834 23.0359 80.0583 22.7096C79.6332 22.3833 79.0663 22.3085 78.5711 22.5135L74.4131 24.2355C73.7496 24.508 73.3719 25.2122 73.5119 25.9157C73.6519 26.6192 74.2703 27.1252 74.9876 27.123Z" fill="white"/>
<path d="M13.4382 27.0075C14.2037 27.3248 15.0814 26.9615 15.3987 26.196C15.716 25.4305 15.3527 24.5528 14.5872 24.2355L10.4292 22.5135C9.66372 22.1966 8.78631 22.5603 8.46943 23.3257C8.15256 24.0912 8.51622 24.9686 9.28169 25.2855L13.4382 27.0075Z" fill="white"/>
</svg>
