<svg width="541" height="401" viewBox="0 0 541 401" fill="none" xmlns="http://www.w3.org/2000/svg">
<rect width="361.755" height="356.627" transform="matrix(-1 0 0 1 383.061 44.373)" fill="white"/>
<path d="M196.537 122.657C220.274 63.4982 166.016 59.4921 157.742 84.2217C141.468 115.457 148.52 129.099 159.852 133.337C157.131 145.264 149.912 172.211 157.222 181.872C166.359 193.948 172.421 199.72 178.312 183.976C183.025 171.381 186.799 145.227 188.097 133.724C191.648 134.859 198.307 134.236 196.537 122.657Z" fill="#FFFAE2"/>
<path d="M173.967 134.877C169.593 135.351 164.435 135.052 159.852 133.337M157.742 84.2217C166.016 59.4921 220.274 63.4982 196.537 122.657M157.742 84.2217C141.468 115.457 148.52 129.099 159.852 133.337M157.742 84.2217C157.742 84.2217 188.8 103.739 172.532 92.2352C156.264 80.7308 189.582 99.0007 189.582 99.0007L186.298 118.894C190.386 116.35 194.802 118.64 196.537 122.657M196.537 122.657C198.307 134.236 191.648 134.859 188.097 133.724C186.799 145.227 183.025 171.381 178.312 183.976C172.421 199.72 166.359 193.948 157.222 181.872C149.912 172.211 157.131 145.264 159.852 133.337" stroke="#232540" stroke-width="4" stroke-linecap="round" stroke-linejoin="round"/>
<path d="M196.814 123.092C221.155 67.9317 168.622 54.8989 157.169 84.222L189.296 98.6887L185.737 120.165C192.519 116.104 196.571 121.509 196.814 123.092Z" fill="#232540"/>
<rect x="25.8062" y="4.5" width="323.423" height="371.457" rx="23.5" stroke="white" stroke-width="9"/>
<path d="M230.387 396.891L216.238 329.51H146.905L164.734 396.891H230.387Z" fill="#232540"/>
<path d="M104.788 396.891L117.003 324.58H170.972V358.593L158.939 384.566L147.112 396.891H104.788Z" fill="#232540"/>
<path d="M160.443 374.705L156.306 350.875" stroke="#2A5EE8" stroke-width="4" stroke-linecap="round" stroke-linejoin="round"/>
<path d="M36.1039 175.579C31.194 168.744 20.3889 154.465 17.6707 146.184C17.6707 146.184 9.23911 127.019 11.0963 124.517C12.918 122.063 17.8396 134.216 21.4647 139.481C16.9166 132.835 12.3558 115.44 14.2904 114.57C17.5824 113.09 25.2739 131.699 28.8591 138.184C25.2328 131.467 16.4885 112.151 19.5715 107.716C20.9529 105.729 30.7954 124.819 34.1708 133.657C32.1587 128.199 29.0348 114.584 28.9859 111.779C28.8258 102.61 40.6946 127.153 43.8398 137.307L54.3715 171.755L36.1039 175.579Z" fill="#FFFAE2" stroke="#232540" stroke-width="4" stroke-linecap="round" stroke-linejoin="round"/>
<path d="M52.9227 145.406C53.5114 151.311 57.1755 162.769 59.6375 167.786L49.2644 162.55L38.8912 157.313C35.4883 153.505 41.7212 147.312 44.3321 144.271C45.8449 131.316 45.6154 125.098 48.4913 124.799C52.8717 124.343 52.0736 136.888 52.9227 145.406Z" fill="#FFFAE2"/>
<path d="M59.6293 167.786C57.1651 162.766 53.4979 151.301 52.9087 145.393C52.0588 136.87 52.8577 124.318 48.4734 124.774C45.5951 125.073 45.8248 131.294 44.3106 144.257C41.0075 144.201 38.512 152.799 41.9178 156.61" stroke="#232540" stroke-width="4" stroke-linecap="round" stroke-linejoin="round"/>
<path d="M161.986 148.149C146.386 142.744 109.823 148.655 88.3762 215.537L56.115 148.149L30.334 175.381C38.8159 204.937 61.9311 261.847 79.7429 266.711C97.5547 271.575 107.157 256.915 109.732 248.977L98.827 343.219L223.328 336.126L219.738 298.02C235.187 297.007 270.766 289.41 275.128 266.711C280.58 238.337 226.963 154.229 183.797 148.149H161.986Z" fill="#2A5EE8"/>
<path d="M191.879 141.903C191.879 141.903 187.866 160.335 185.415 163.758L155.652 160.711L153.886 139.943L191.879 141.903Z" fill="#2A5EE8"/>
<path d="M227.382 247.763C227.382 236.068 213.227 221.213 213.227 221.213L217.19 258.194C223.126 255.26 227.382 251.304 227.382 247.763Z" fill="#FFFAE2"/>
<path d="M184.632 267.36C184.632 267.36 203.522 264.949 217.19 258.194M217.19 258.194C223.126 255.26 227.382 251.304 227.382 247.763C227.382 236.068 213.227 221.213 213.227 221.213L217.19 258.194Z" stroke="#232540" stroke-width="4" stroke-linecap="round" stroke-linejoin="round"/>
<path d="M111.305 243.022C111.305 243.022 122.063 196.874 134.237 187.708" stroke="#232540" stroke-width="4" stroke-linecap="round" stroke-linejoin="round"/>
<path d="M163.951 107.024C143.916 102.382 140.492 102.55 162.551 114.276L163.951 107.024Z" fill="#FFFAE2"/>
<path d="M161.454 105.381C145.518 104.951 141.764 103.974 158.871 113.278" stroke="#232540" stroke-width="4" stroke-linecap="round" stroke-linejoin="round"/>
<path d="M158.853 113.516L156.784 119.84C158.305 121.972 162.344 124.925 166.334 119.683" stroke="#232540" stroke-width="4" stroke-linecap="round" stroke-linejoin="round"/>
<ellipse rx="1.53622" ry="3.90185" transform="matrix(-0.900674 -0.446971 -0.367475 0.925031 157.66 99.5896)" fill="#232540"/>
<ellipse rx="1.53622" ry="3.90185" transform="matrix(-0.900674 -0.446971 -0.367475 0.925031 170.455 105.149)" fill="#232540"/>
<path d="M200.065 274.932C222.497 286.339 183.712 288.329 174.088 289.286C165.922 290.098 118.841 279.645 119.213 277.347C119.824 273.582 137.776 278.258 140.706 276.586C134.059 275.204 114.03 270.131 113.786 267.022C113.542 263.914 134.854 269.93 140.238 269.458C130.043 265.697 110.321 258.562 113.157 254.952C114.557 253.169 135.912 261.322 146.732 263.305C137.171 258.205 115.624 253.899 118.527 250.796C120.482 248.707 145.282 253.87 156.139 257.901C152.203 254.291 150.157 248.82 149.112 244.623C148.645 242.75 150.87 241.686 152.209 243.064C160.238 251.334 179.003 268.734 200.065 274.932Z" fill="#FFFAE2" stroke="#232540" stroke-width="4" stroke-linecap="round" stroke-linejoin="round"/>
<path d="M163.399 312.56L205.866 303.189V256.614H170.76L163.399 312.56Z" fill="#2A5EE8"/>
<path d="M211.812 298.653C211.812 298.653 195.391 301.814 174.157 298.653" stroke="#232540" stroke-width="4" stroke-linecap="round" stroke-linejoin="round"/>
<path d="M373.043 202.965H198.268L176.502 323.81H349.978L373.043 202.965Z" fill="white"/>
<path d="M385.775 202.965H210.292L188.438 323.81H362.616L385.775 202.965Z" fill="#C9E7FC"/>
<path d="M291.307 323.758H258.967V386.209H284.265L291.307 323.758Z" fill="#C9E7FC"/>
<rect width="96.2674" height="9.03891" transform="matrix(-1 0 0 1 243.173 373.061)" fill="#C9E7FC"/>
<rect width="29.3315" height="16.4344" transform="matrix(-1 0 0 1 132.616 365.666)" fill="#C9E7FC"/>
<rect width="21.8106" height="16.4344" transform="matrix(-1 0 0 1 132.616 365.666)" fill="#C9E7FC"/>
<rect x="-5.13575" y="-5.13575" width="10.2715" height="462.04" transform="matrix(4.01489e-08 -1 -1 -4.759e-08 530.728 390.728)" fill="#C9E7FC" stroke="#C9E7FC" stroke-width="10.2715"/>
</svg>
