<svg width="75" height="84" viewBox="0 0 75 84" fill="none" xmlns="http://www.w3.org/2000/svg">
<path d="M73.32 21.3C70.44 16.26 62.07 15.27 51.45 17.79C48.39 7.35 43.35 0.6 37.5 0.6C31.65 0.6 26.61 7.35 23.55 17.79C12.93 15.18 4.56 16.26 1.68 21.3C-1.2 26.34 2.04 34.08 9.6 42C2.04 49.92 -1.29 57.66 1.68 62.7C3.57 65.94 7.62 67.65 13.29 67.65C15 67.65 16.89 67.47 18.96 67.2C20.49 66.93 22.02 66.66 23.55 66.3C26.61 76.65 31.65 83.4 37.5 83.4C43.35 83.4 48.39 76.65 51.45 66.21C53.07 66.57 54.6 66.93 56.04 67.11C58.11 67.47 60 67.56 61.71 67.56C67.38 67.56 71.43 65.85 73.32 62.61C76.2 57.57 72.96 49.83 65.4 41.91C72.96 34.08 76.29 26.34 73.32 21.3ZM56.58 20.4C58.47 20.13 60.18 19.95 61.8 19.95C66.03 19.95 69 21.03 70.26 23.1C71.88 25.89 70.26 30.66 65.76 36.24C64.86 37.32 63.96 38.4 62.88 39.48C60.36 37.05 57.39 34.71 54.15 32.37C53.79 28.41 53.16 24.63 52.35 21.21C53.79 20.94 55.23 20.58 56.58 20.4ZM44.25 53.7C42 54.96 39.75 56.22 37.5 57.3C35.25 56.22 33 55.05 30.75 53.7C28.5 52.44 26.34 51 24.27 49.65C24.09 47.13 24 44.61 24 42C24 39.39 24.09 36.87 24.27 34.35C26.34 32.91 28.5 31.56 30.75 30.3C33 29.04 35.25 27.78 37.5 26.7C39.75 27.78 42 28.95 44.25 30.3C46.5 31.56 48.66 33 50.73 34.35C50.91 36.87 51 39.39 51 42C51 44.61 50.91 47.13 50.73 49.65C48.66 51 46.5 52.35 44.25 53.7ZM50.28 54.24C49.92 56.85 49.47 59.37 48.93 61.8C46.59 61.08 44.16 60.18 41.73 59.19C43.17 58.47 44.61 57.66 46.05 56.85C47.49 55.95 48.84 55.14 50.28 54.24ZM33.27 59.19C30.84 60.18 28.41 61.08 26.07 61.8C25.53 59.46 25.08 56.94 24.72 54.24C26.07 55.14 27.51 55.95 28.95 56.76C30.39 57.66 31.83 58.38 33.27 59.19ZM20.49 46.95C18.42 45.33 16.44 43.71 14.64 42C16.44 40.38 18.42 38.67 20.49 37.05C20.4 38.67 20.4 40.38 20.4 42C20.4 43.62 20.4 45.33 20.49 46.95ZM24.72 29.76C25.08 27.15 25.53 24.63 26.07 22.2C28.41 22.92 30.84 23.82 33.27 24.81C31.83 25.53 30.39 26.34 28.95 27.15C27.51 28.05 26.16 28.86 24.72 29.76ZM41.73 24.81C44.16 23.82 46.59 22.92 48.93 22.2C49.47 24.54 49.92 27.06 50.28 29.76C48.93 28.86 47.49 28.05 46.05 27.24C44.61 26.34 43.17 25.62 41.73 24.81ZM54.51 37.05C56.58 38.67 58.56 40.29 60.36 42C58.56 43.62 56.58 45.33 54.51 46.95C54.6 45.33 54.6 43.62 54.6 42C54.6 40.38 54.6 38.67 54.51 37.05ZM28.32 14.64C30.93 7.98 34.26 4.2 37.5 4.2C40.74 4.2 44.07 7.98 46.68 14.64C47.22 15.9 47.67 17.34 48.03 18.78C44.7 19.77 41.1 21.12 37.5 22.74C33.9 21.12 30.3 19.77 26.97 18.69C27.42 17.34 27.87 15.9 28.32 14.64ZM4.74 23.1C5.91 21.03 8.88 19.95 13.2 19.95C14.73 19.95 16.53 20.13 18.42 20.4C19.77 20.58 21.21 20.94 22.65 21.3C21.84 24.72 21.21 28.41 20.85 32.46C17.61 34.8 14.64 37.14 12.12 39.57C11.04 38.49 10.14 37.41 9.24 36.33C4.74 30.66 3.12 25.89 4.74 23.1ZM18.42 63.6C11.4 64.68 6.45 63.69 4.83 60.9C3.21 58.11 4.83 53.34 9.33 47.76C10.23 46.68 11.13 45.6 12.21 44.52C14.73 46.95 17.7 49.29 20.94 51.63C21.3 55.59 21.93 59.37 22.74 62.79C21.21 63.06 19.77 63.42 18.42 63.6ZM46.68 69.36C44.07 76.02 40.74 79.8 37.5 79.8C34.26 79.8 30.93 76.02 28.32 69.36C27.78 68.1 27.33 66.66 26.97 65.31C30.39 64.23 33.9 62.88 37.5 61.26C41.1 62.88 44.61 64.23 48.03 65.31C47.58 66.66 47.13 68.1 46.68 69.36ZM70.26 60.9C68.64 63.69 63.69 64.68 56.67 63.6C55.32 63.42 53.88 63.06 52.44 62.7C53.25 59.28 53.88 55.59 54.24 51.54C57.48 49.2 60.45 46.86 62.97 44.43C64.05 45.51 64.95 46.59 65.85 47.67C70.26 53.34 71.88 58.11 70.26 60.9ZM47.4 37.5C46.59 34.98 44.34 33.18 41.91 33C40.29 32.91 38.76 33.36 37.5 34.35C36.24 33.45 34.71 32.91 33.09 33C30.66 33.18 28.41 34.98 27.6 37.5C26.61 40.47 27.78 43.71 30.75 46.14L36.42 50.64C36.78 50.91 37.14 51 37.5 51C37.86 51 38.31 50.91 38.58 50.64L44.25 46.14C47.22 43.71 48.39 40.56 47.4 37.5ZM42.09 43.35L37.5 46.95L33 43.35C31.29 41.91 30.57 40.2 31.02 38.67C31.38 37.59 32.37 36.69 33.27 36.69C33.36 36.69 33.36 36.69 33.45 36.69C34.44 36.69 35.43 37.23 36.06 38.04C36.42 38.49 36.96 38.76 37.5 38.76C38.04 38.76 38.67 38.49 38.94 38.04C39.57 37.23 40.47 36.69 41.55 36.69C41.64 36.69 41.64 36.69 41.73 36.69C42.72 36.78 43.62 37.59 43.98 38.67C44.52 40.2 43.8 41.91 42.09 43.35Z" fill="white"/>
</svg>
