<svg width="90" height="90" viewBox="0 0 90 90" fill="none" xmlns="http://www.w3.org/2000/svg">
<path d="M22.8516 72.7734H1.75781C0.787148 72.7734 0 73.5606 0 74.5312V88.2422C0 89.2129 0.787148 90 1.75781 90H22.8516C23.8222 90 24.6094 89.2129 24.6094 88.2422V74.5312C24.6094 73.5606 23.8222 72.7734 22.8516 72.7734ZM21.0938 86.4844H3.51562V76.2891H21.0938V86.4844Z" fill="white"/>
<path d="M55.5469 66.7969H34.4531C33.4825 66.7969 32.6953 67.584 32.6953 68.5547V88.2422C32.6953 89.2129 33.4825 90 34.4531 90H55.5469C56.5175 90 57.3047 89.2129 57.3047 88.2422V68.5547C57.3047 67.584 56.5175 66.7969 55.5469 66.7969ZM53.7891 86.4844H36.2109V70.3125H53.7891V86.4844Z" fill="white"/>
<path d="M88.2422 61.1719H72.8879C72.9842 60.9964 73.0726 60.8152 73.1523 60.6287C73.7847 59.1479 73.8026 57.5095 73.2029 56.0153L67.5251 41.87C67.0277 40.6306 66.118 39.5782 64.9642 38.9064L59.4167 35.6762C59.419 35.6393 59.4223 35.6027 59.4223 35.5651V23.5447C66.3622 22.5016 72.6441 19.3238 77.6726 14.2954L77.7918 14.1761C80.0033 11.9644 80.0033 8.36561 77.7918 6.15428C76.7204 5.08272 75.2961 4.49262 73.7808 4.49262C72.2658 4.49262 70.8413 5.08271 69.7699 6.1541L69.6507 6.27328C66.1983 9.72563 61.779 11.8591 57.0034 12.4226C57.6099 11.3625 57.9584 10.137 57.9584 8.83055V7.25889C57.9584 3.25617 54.7021 0 50.6995 0C46.697 0 43.4406 3.25617 43.4406 7.25889V8.83055C43.4406 10.199 43.8217 11.4801 44.4827 12.5738H44.2318C35.456 12.5738 27.2053 15.9913 20.9993 22.197L20.8802 22.3163C18.6687 24.528 18.6687 28.1268 20.8802 30.3383C23.0918 32.5499 26.6906 32.5499 28.9023 30.3383L29.0215 30.2191C31.882 27.3582 35.3865 25.403 39.2498 24.4951V35.5653C39.2498 35.9571 39.3797 36.318 39.5967 36.6103L34.4275 47.1053L21.5571 53.2121C20.1023 53.9026 19.0035 55.118 18.4628 56.6348C17.9221 58.1516 18.0047 59.788 18.6949 61.2425C19.6877 63.3354 21.8266 64.6879 24.1441 64.6879C25.0416 64.6879 25.9101 64.4917 26.7254 64.1048L34.3447 60.4895C35.2216 60.0734 35.5953 59.0251 35.1791 58.1479C34.763 57.2709 33.715 56.8969 32.8375 57.3135L25.2183 60.9288C24.8776 61.0905 24.5164 61.1724 24.1442 61.1724C23.1775 61.1724 22.2854 60.6085 21.8712 59.7357C21.5835 59.1295 21.5492 58.4474 21.7744 57.8152C21.9997 57.183 22.4578 56.6764 23.0642 56.3887L36.4874 50.0194C36.8455 49.8496 37.1357 49.5636 37.3108 49.2082L43.1645 37.3236H55.2584L63.1955 41.9451C63.6764 42.2253 64.0556 42.6639 64.2628 43.1803L69.9406 57.3256C70.1905 57.9484 70.1831 58.6313 69.9195 59.2483C69.6558 59.8656 69.1678 60.3432 68.5447 60.5932C68.2444 60.7138 67.9296 60.775 67.6104 60.7751C66.5779 60.7751 65.662 60.1559 65.2774 59.1973L60.1462 46.4136C59.9776 45.9935 59.6537 45.655 59.2416 45.4678L50.4294 41.4661C49.6663 41.1196 48.7658 41.3597 48.2762 42.0393L43.9353 48.0653C43.3679 48.8528 43.5465 49.9514 44.3343 50.519C45.1222 51.0864 46.2206 50.9078 46.788 50.12L50.2872 45.2624L57.1463 48.3773L62.0149 60.5065C62.6477 62.0833 63.88 63.2769 65.3912 63.8713V88.2422C65.3912 89.2129 66.1783 90 67.149 90H88.2427C89.2134 90 90.0005 89.2129 90.0005 88.2422V62.9297C90 61.959 89.2129 61.1719 88.2422 61.1719ZM46.9563 8.83055V7.25889C46.9563 5.19486 48.6355 3.51562 50.6995 3.51562C52.7636 3.51562 54.4428 5.19486 54.4428 7.25889V8.83055C54.4428 10.8946 52.7636 12.5738 50.6995 12.5738C48.6355 12.5738 46.9563 10.8947 46.9563 8.83055ZM42.7653 33.8073V22.3826C42.7653 21.8744 42.5454 21.3913 42.1625 21.0575C41.7795 20.7237 41.2715 20.572 40.7674 20.6413C35.3496 21.3877 30.4283 23.84 26.5352 27.7332L26.416 27.8524C25.5753 28.6935 24.2068 28.6935 23.3659 27.8524C22.525 27.0116 22.525 25.6433 23.3659 24.8022L23.4851 24.683C29.0268 19.1415 36.3946 16.0894 44.2315 16.0894H54.4398C61.1248 16.0894 67.4095 13.4861 72.1362 8.75936L72.2554 8.64018C72.6627 8.23289 73.2043 8.00824 73.7805 8.00824C74.3567 8.00824 74.8981 8.23254 75.3056 8.64V8.64018C76.1465 9.48094 76.1465 10.8492 75.3056 11.6903L75.1864 11.8095C70.3577 16.6382 64.2366 19.5557 57.4852 20.2467C56.5884 20.3384 55.9065 21.0938 55.9065 21.9953V33.8073H42.7653ZM86.4844 86.4844H68.9063V64.6875H86.4844V86.4844Z" fill="white"/>
<path d="M41.9819 56.7526C42.3086 56.4258 42.4951 55.9723 42.4951 55.51C42.4951 55.0477 42.3086 54.5941 41.9819 54.2672C41.6531 53.9402 41.2014 53.7522 40.7391 53.7522C40.2768 53.7522 39.8233 53.9401 39.4945 54.2672C39.1676 54.5941 38.9813 55.0477 38.9813 55.51C38.9813 55.9723 39.1676 56.4258 39.4945 56.7526C39.8233 57.0795 40.275 57.2678 40.7391 57.2678C41.2014 57.2678 41.6531 57.0797 41.9819 56.7526Z" fill="white"/>
</svg>
