<svg width="350" height="251" viewBox="0 0 350 251" fill="none" xmlns="http://www.w3.org/2000/svg">
<path d="M334.097 232.405L71.3019 232.026C67.3045 232.016 63.4742 230.492 60.6513 227.789C57.8288 225.085 56.2441 221.423 56.245 217.606L56.4382 83.6621C56.4483 79.8449 58.0436 76.1875 60.8738 73.4922C63.7045 70.7974 67.5392 69.2846 71.5366 69.286L334.331 69.665C338.329 69.6751 342.159 71.199 344.981 73.902C347.804 76.6055 349.389 80.2674 349.388 84.0846L349.195 218.029C349.185 221.846 347.59 225.503 344.759 228.199C341.929 230.893 338.094 232.406 334.097 232.405Z" fill="white"/>
<path d="M334.097 232.405L71.3019 232.026C67.3045 232.016 63.4742 230.492 60.6513 227.789C57.8288 225.085 56.2441 221.423 56.245 217.606L56.4382 83.6621C56.4483 79.8449 58.0436 76.1875 60.8738 73.4922C63.7045 70.7974 67.5392 69.2846 71.5366 69.286L334.331 69.665C338.329 69.6751 342.159 71.199 344.981 73.902C347.804 76.6055 349.389 80.2674 349.388 84.0846L349.195 218.029C349.185 221.846 347.59 225.503 344.759 228.199C341.929 230.893 338.094 232.406 334.097 232.405ZM71.5353 70.1586C67.7801 70.1571 64.1781 71.5782 61.519 74.1101C58.8598 76.642 57.3613 80.0775 57.352 83.6634L57.1588 217.607C57.1578 221.193 58.6464 224.633 61.2982 227.173C63.9501 229.712 67.5479 231.144 71.3031 231.153L334.098 231.532C337.853 231.534 341.455 230.113 344.114 227.581C346.773 225.049 348.272 221.613 348.281 218.027L348.474 84.0833C348.475 80.4974 346.986 77.0576 344.335 74.518C341.683 71.9784 338.085 70.5469 334.33 70.5376L71.5353 70.1586Z" fill="#F2F2F2"/>
<path d="M334.112 221.934L71.3172 221.555C70.2271 221.552 69.1823 221.136 68.4126 220.399C67.6428 219.662 67.2107 218.663 67.2108 217.622L67.404 83.6779C67.4069 82.6369 67.8419 81.6393 68.6138 80.9044C69.3856 80.1694 70.4316 79.7569 71.5217 79.7572L334.316 80.1362C335.406 80.1391 336.451 80.5546 337.221 81.2918C337.991 82.0289 338.423 83.0278 338.423 84.0688L338.23 218.013C338.227 219.054 337.792 220.051 337.02 220.786C336.248 221.521 335.202 221.934 334.112 221.934ZM71.5205 80.6298C70.6725 80.6294 69.8592 80.9502 69.2589 81.5222C68.6582 82.0938 68.3199 82.8695 68.3178 83.6792L68.1246 217.623C68.1244 218.433 68.4604 219.21 69.0595 219.783C69.6581 220.357 70.4705 220.68 71.3185 220.682L334.113 221.061C334.961 221.061 335.774 220.74 336.375 220.169C336.975 219.597 337.314 218.821 337.316 218.011L337.509 84.0675C337.509 83.2577 337.173 82.4811 336.574 81.9078C335.975 81.334 335.163 81.0109 334.315 81.0088L71.5205 80.6298Z" fill="#F2F2F2"/>
<path d="M267.226 222.476L13.2979 157.808C9.43645 156.821 6.14282 154.411 4.13962 151.107C2.13639 147.803 1.58714 143.876 2.61238 140.186L38.7401 10.7659C39.774 7.07873 42.2974 3.93392 45.7567 2.02144C49.2159 0.10896 53.3287 -0.414997 57.1922 0.564512L311.121 65.2317C314.982 66.2194 318.276 68.6294 320.279 71.9334C322.282 75.2369 322.832 79.1639 321.806 82.8536L285.679 212.274C284.645 215.961 282.121 219.106 278.662 221.018C275.203 222.931 271.09 223.455 267.226 222.476Z" fill="#F2F2F2"/>
<path d="M267.226 222.476L13.2979 157.808C9.43645 156.821 6.14282 154.411 4.13962 151.107C2.13639 147.803 1.58714 143.876 2.61238 140.186L38.7401 10.7659C39.774 7.07873 42.2974 3.93392 45.7567 2.02144C49.2159 0.10896 53.3287 -0.414997 57.1922 0.564512L311.121 65.2317C314.982 66.2194 318.276 68.6294 320.279 71.9334C322.282 75.2369 322.832 79.1639 321.806 82.8536L285.679 212.274C284.645 215.961 282.121 219.106 278.662 221.018C275.203 222.931 271.09 223.455 267.226 222.476ZM56.957 1.40764C53.3274 0.487513 49.4641 0.979723 46.2143 2.77629C42.9648 4.57285 40.5943 7.52707 39.623 10.9908L3.49535 140.411C2.53227 143.877 3.04824 147.567 4.93003 150.67C6.81186 153.773 9.90585 156.037 13.5332 156.965L267.462 221.632C271.091 222.552 274.955 222.06 278.204 220.264C281.454 218.467 283.825 215.513 284.796 212.049L320.924 82.6285C321.887 79.163 321.371 75.4733 319.489 72.3703C317.607 69.2668 314.513 67.0027 310.886 66.0747L56.957 1.40764Z" fill="#E6E6E6"/>
<path d="M270.051 212.358L16.1222 147.69C15.0691 147.421 14.1708 146.764 13.6245 145.863C13.0782 144.962 12.9284 143.891 13.208 142.885L49.3357 13.464C49.6177 12.4584 50.3057 11.6008 51.2495 11.0792C52.1928 10.5576 53.3142 10.4147 54.3679 10.6818L308.297 75.3491C309.35 75.6185 310.248 76.2756 310.794 77.1769C311.341 78.0777 311.491 79.1486 311.211 80.1548L275.083 209.575C274.801 210.581 274.113 211.439 273.17 211.96C272.226 212.482 271.104 212.625 270.051 212.358ZM54.1328 11.5249C53.3134 11.3172 52.441 11.4283 51.7071 11.834C50.9732 12.2397 50.4381 12.9067 50.2186 13.6889L14.091 143.109C13.8735 143.892 13.99 144.725 14.4149 145.426C14.8398 146.127 15.5385 146.638 16.3576 146.847L270.286 211.514C271.106 211.722 271.978 211.611 272.712 211.205C273.445 210.8 273.981 210.133 274.2 209.351L310.328 79.9301C310.545 79.1473 310.429 78.3142 310.004 77.6138C309.579 76.9129 308.88 76.4014 308.061 76.1921L54.1328 11.5249Z" fill="white"/>
<path d="M277.872 250.212L15.0777 249.833C11.0803 249.823 7.25009 248.299 4.42734 245.596C1.60462 242.892 0.0199217 239.231 0.0209116 235.413L0.214097 101.469C0.224118 97.6522 1.81937 93.9948 4.64988 91.2995C7.48042 88.6046 11.315 87.0918 15.3125 87.0932L278.107 87.4722C282.104 87.4823 285.935 89.0062 288.757 91.7092C291.58 94.4127 293.165 98.0747 293.164 101.892L292.971 235.836C292.961 239.653 291.365 243.31 288.535 246.006C285.704 248.701 281.87 250.213 277.872 250.212Z" fill="white"/>
<path d="M206.49 238.765L36.785 238.521C36.5725 238.521 36.3602 238.516 36.1508 238.504L116.476 195.455C118.005 194.618 121.434 194.328 124.135 194.807C124.876 194.917 125.593 195.14 126.259 195.469L180.083 224.514L182.662 225.904L206.49 238.765Z" fill="#E6E6E6"/>
<path d="M260.03 238.842L113.249 238.631L141.711 225.845L143.759 224.923L180.848 208.26C183.279 207.168 189.125 207.108 191.98 208.07C192.172 208.135 192.35 208.204 192.514 208.277L260.03 238.842Z" fill="#E6E6E6"/>
<path d="M15.3113 87.9658C11.5561 87.9643 7.95389 89.3854 5.29493 91.9173C2.63596 94.4493 1.13738 97.8847 1.12795 101.471L0.934768 235.415C0.933854 239.001 2.42251 242.44 5.07417 244.98C7.72582 247.52 11.3239 248.951 15.0791 248.96L277.874 249.339C281.629 249.341 285.231 247.92 287.89 245.388C290.549 242.856 292.048 239.42 292.057 235.835L292.25 101.891C292.251 98.3046 290.762 94.8648 288.111 92.3252C285.459 89.7856 281.861 88.3542 278.106 88.3448L15.3113 87.9658Z" fill="#3F3D56"/>
<path d="M277.887 239.741L15.0926 239.362C14.0024 239.359 12.9578 238.943 12.188 238.206C11.4181 237.469 10.9859 236.47 10.9862 235.429L11.1794 101.485C11.1821 100.444 11.6172 99.4465 12.3892 98.7116C13.1611 97.9767 14.2069 97.5641 15.2971 97.5644L278.092 97.9434C279.182 97.9463 280.227 98.3619 280.996 99.099C281.766 99.8362 282.198 100.835 282.198 101.876L282.005 235.82C282.002 236.861 281.567 237.859 280.795 238.594C280.023 239.329 278.977 239.741 277.887 239.741ZM15.2959 98.437C14.4479 98.4367 13.6345 98.7575 13.0341 99.3295C12.4337 99.901 12.0953 100.677 12.0932 101.486L11.9 235.43C11.8998 236.24 12.2359 237.017 12.8347 237.59C13.4335 238.164 14.2459 238.487 15.0939 238.489L277.888 238.868C278.736 238.869 279.55 238.548 280.15 237.976C280.751 237.404 281.089 236.628 281.091 235.819L281.284 101.875C281.285 101.065 280.949 100.288 280.349 99.715C279.751 99.1413 278.938 98.8181 278.09 98.816L15.2959 98.437Z" fill="#CCCCCC"/>
<path d="M219.503 122.376C235.123 122.399 247.803 110.325 247.825 95.4089C247.846 80.4927 235.201 68.3824 219.581 68.3599C203.96 68.3373 191.28 80.4111 191.258 95.3273C191.237 110.244 203.882 122.354 219.503 122.376Z" fill="#FF6584"/>
<path d="M231.224 193.717C251.008 193.746 267.074 174.599 267.108 150.952C267.142 127.304 251.132 108.111 231.347 108.083C211.563 108.054 195.498 127.201 195.464 150.848C195.43 174.496 211.44 193.689 231.224 193.717Z" fill="#F2F2F2"/>
<path d="M231.396 142.29L231.495 142.29L233.126 239.276L229.386 239.27L231.396 142.29Z" fill="#CCCCCC"/>
<path d="M237.414 206.505C237.523 206.704 237.545 206.935 237.475 207.149C237.405 207.363 237.249 207.543 237.041 207.647L231.9 210.222L231.077 208.724L236.218 206.149C236.426 206.044 236.669 206.023 236.893 206.09C237.117 206.157 237.304 206.306 237.414 206.505Z" fill="#CCCCCC"/>
<path d="M128.237 193.569C148.02 193.597 164.086 174.451 164.12 150.803C164.155 127.156 148.144 107.963 128.36 107.934C108.576 107.906 92.5099 127.052 92.4758 150.7C92.4417 174.347 108.453 193.54 128.237 193.569Z" fill="#F2F2F2"/>
<path d="M134.424 207.96C134.314 207.761 134.127 207.612 133.903 207.545C133.679 207.478 133.436 207.499 133.228 207.604L129.639 209.402L128.507 142.142L128.409 142.142L126.399 239.122L130.138 239.128L129.67 211.296L134.051 209.101C134.259 208.997 134.415 208.818 134.485 208.604C134.555 208.39 134.533 208.158 134.424 207.96Z" fill="#CCCCCC"/>
<path d="M179.81 52.1511C204.878 52.1872 225.188 97.3222 225.145 127.286C225.102 157.25 204.745 181.51 179.677 181.474C154.608 181.438 134.321 157.119 134.364 127.155C134.408 97.1912 154.741 52.1149 179.81 52.1511Z" fill="#6C63FF"/>
<path d="M187.518 199.273C187.449 199.149 187.355 199.038 187.242 198.948C187.129 198.858 186.998 198.79 186.858 198.748C186.717 198.706 186.569 198.691 186.422 198.704C186.276 198.716 186.133 198.757 186.002 198.822L181.454 201.1L180.021 115.875L179.896 115.875L177.35 238.759L182.088 238.766L181.495 203.501L187.045 200.72C187.176 200.655 187.292 200.566 187.386 200.457C187.481 200.349 187.552 200.224 187.595 200.09C187.639 199.956 187.655 199.814 187.641 199.674C187.628 199.534 187.586 199.398 187.518 199.273Z" fill="#3F3D56"/>
<path d="M278.787 249.341L15.9928 248.962C11.9953 248.952 8.16513 247.428 5.34239 244.725C2.51966 242.021 0.934959 238.359 0.935951 234.542L1.12914 100.598C1.13916 96.7809 2.73441 93.1235 5.56493 90.4282C8.39546 87.7333 12.2301 86.2205 16.2275 86.2219L279.022 86.6009C283.019 86.6111 286.85 88.1349 289.672 90.8379C292.495 93.5414 294.08 97.2034 294.079 101.021L293.886 234.965C293.876 238.782 292.28 242.439 289.45 245.134C286.619 247.829 282.785 249.342 278.787 249.341Z" fill="white"/>
<path d="M207.405 237.894L37.7 237.649C37.4875 237.65 37.2752 237.644 37.0659 237.633L117.391 194.584C118.921 193.747 122.349 193.457 125.05 193.935C125.791 194.045 126.508 194.269 127.174 194.598L180.998 223.643L183.577 225.032L207.405 237.894Z" fill="#E6E6E6"/>
<path d="M260.945 237.971L114.164 237.76L142.626 224.973L144.674 224.052L181.763 207.389C184.194 206.297 190.04 206.237 192.895 207.198C193.087 207.264 193.265 207.333 193.429 207.406L260.945 237.971Z" fill="#E6E6E6"/>
<path d="M278.787 249.341L15.9928 248.962C11.9953 248.952 8.16513 247.428 5.34239 244.725C2.51966 242.021 0.934959 238.359 0.935951 234.542L1.12914 100.598C1.13916 96.7809 2.73441 93.1235 5.56493 90.4282C8.39546 87.7333 12.2301 86.2205 16.2275 86.2219L279.022 86.6009C283.019 86.6111 286.85 88.1349 289.672 90.8379C292.495 93.5414 294.08 97.2034 294.079 101.021L293.886 234.965C293.876 238.782 292.28 242.439 289.45 245.134C286.619 247.829 282.785 249.342 278.787 249.341ZM16.2262 87.0945C12.471 87.093 8.86887 88.5141 6.20991 91.046C3.55094 93.578 2.05236 97.0134 2.04293 100.599L1.84974 234.543C1.84883 238.129 3.33749 241.569 5.98915 244.109C8.64079 246.648 12.2389 248.08 15.994 248.089L278.789 248.468C282.544 248.47 286.146 247.049 288.805 244.517C291.464 241.985 292.963 238.549 292.972 234.963L293.165 101.019C293.166 97.4333 291.677 93.9935 289.026 91.4539C286.374 88.9143 282.776 87.4829 279.021 87.4735L16.2262 87.0945Z" fill="#3F3D56"/>
<path d="M278.802 238.87L16.0077 238.491C14.9175 238.488 13.8729 238.072 13.103 237.335C12.3332 236.598 11.901 235.599 11.9012 234.558L12.0944 100.614C12.0972 99.5729 12.5322 98.5752 13.3042 97.8403C14.0762 97.1054 15.122 96.6928 16.2122 96.6931L279.007 97.0721C280.097 97.075 281.142 97.4906 281.911 98.2277C282.681 98.9649 283.113 99.9637 283.113 101.005L282.92 234.949C282.917 235.99 282.482 236.987 281.71 237.722C280.938 238.457 279.892 238.87 278.802 238.87ZM16.2109 97.5657C15.363 97.5653 14.5496 97.8862 13.9492 98.4582C13.3487 99.0297 13.0104 99.8054 13.0082 100.615L12.815 234.559C12.8148 235.369 13.1509 236.146 13.7498 236.719C14.3485 237.293 15.161 237.616 16.0089 237.618L278.804 237.997C279.652 237.997 280.465 237.677 281.065 237.105C281.666 236.533 282.004 235.757 282.006 234.947L282.199 101.003C282.2 100.194 281.864 99.417 281.265 98.8437C280.666 98.27 279.854 97.9468 279.006 97.9447L16.2109 97.5657Z" fill="#CCCCCC"/>
<path d="M220.418 121.505C236.038 121.528 248.718 109.454 248.74 94.5376C248.762 79.6214 236.116 67.5111 220.496 67.4886C204.875 67.466 192.195 79.5398 192.173 94.456C192.152 109.372 204.797 121.483 220.418 121.505Z" fill="#C9E7FC"/>
<path d="M232.139 192.846C251.923 192.874 267.989 173.728 268.023 150.08C268.057 126.433 252.047 107.24 232.262 107.212C212.478 107.183 196.413 126.33 196.379 149.977C196.345 173.624 212.355 192.817 232.139 192.846Z" fill="#F2F2F2"/>
<path d="M232.311 141.419L232.41 141.419L234.041 238.404L230.302 238.399L232.311 141.419Z" fill="#CCCCCC"/>
<path d="M238.329 205.634C238.438 205.832 238.46 206.064 238.39 206.278C238.32 206.492 238.164 206.671 237.956 206.775L232.815 209.351L231.992 207.853L237.133 205.278C237.341 205.173 237.584 205.152 237.808 205.219C238.032 205.286 238.219 205.435 238.329 205.634Z" fill="#CCCCCC"/>
<path d="M129.152 192.697C148.935 192.726 165.001 173.579 165.035 149.932C165.07 126.284 149.059 107.092 129.275 107.063C109.491 107.034 93.425 126.181 93.3909 149.828C93.3568 173.476 109.368 192.669 129.152 192.697Z" fill="#F2F2F2"/>
<path d="M135.339 207.088C135.23 206.89 135.042 206.741 134.818 206.674C134.594 206.607 134.351 206.628 134.143 206.732L130.554 208.531L129.422 141.271L129.324 141.27L127.314 238.251L131.053 238.256L130.586 210.425L134.966 208.23C135.174 208.126 135.33 207.947 135.4 207.733C135.47 207.519 135.448 207.287 135.339 207.088Z" fill="#CCCCCC"/>
<path d="M180.725 51.2798C205.793 51.316 226.103 96.4509 226.06 126.415C226.017 156.378 205.66 180.639 180.592 180.603C155.523 180.567 135.236 156.247 135.279 126.284C135.323 96.32 155.656 51.2436 180.725 51.2798Z" fill="#2A5EE8"/>
<path d="M188.433 198.402C188.364 198.277 188.27 198.167 188.157 198.076C188.044 197.986 187.913 197.919 187.773 197.877C187.632 197.835 187.484 197.82 187.337 197.832C187.191 197.845 187.048 197.886 186.917 197.951L182.369 200.229L180.936 115.004L180.811 115.003L178.265 237.888L183.003 237.895L182.41 202.629L187.961 199.849C188.091 199.784 188.207 199.694 188.301 199.586C188.396 199.478 188.467 199.353 188.51 199.219C188.554 199.084 188.57 198.943 188.556 198.803C188.543 198.663 188.501 198.526 188.433 198.402Z" fill="#3F3D56"/>
</svg>
