<svg width="13" height="9" viewBox="0 0 13 9" fill="none" xmlns="http://www.w3.org/2000/svg">
    <g clip-path="url(#clip0)">
        <path fill-rule="evenodd" clip-rule="evenodd" d="M8.86364 3.85714C9.84455 3.85714 10.6305 2.99571 10.6305 1.92857C10.6305 0.861429 9.84455 0 8.86364 0C7.88273 0 7.09091 0.861429 7.09091 1.92857C7.09091 2.99571 7.88273 3.85714 8.86364 3.85714ZM4.13636 3.85714C5.11727 3.85714 5.90318 2.99571 5.90318 1.92857C5.90318 0.861429 5.11727 0 4.13636 0C3.15545 0 2.36364 0.861429 2.36364 1.92857C2.36364 2.99571 3.15545 3.85714 4.13636 3.85714ZM4.13636 5.14286C2.75955 5.14286 0 5.895 0 7.39286V8.35714C0 8.71071 0.265909 9 0.590909 9H7.68182C8.00682 9 8.27273 8.71071 8.27273 8.35714V7.39286C8.27273 5.895 5.51318 5.14286 4.13636 5.14286ZM8.86364 5.14286C8.69227 5.14286 8.49727 5.15571 8.29045 5.175C8.30227 5.18143 8.30818 5.19429 8.31409 5.20071C8.98773 5.73429 9.45455 6.44786 9.45455 7.39286V8.35714C9.45455 8.58214 9.41318 8.80071 9.34818 9H12.4091C12.7341 9 13 8.71071 13 8.35714V7.39286C13 5.895 10.2405 5.14286 8.86364 5.14286Z" fill="#2A5EE8"/>
    </g>
    <defs>
        <clipPath id="clip0">
            <rect width="13" height="9" fill="white"/>
        </clipPath>
    </defs>
</svg>